# xmcd CD database file
#
# Track frame offsets:
#	150
#	12826
#	25761
#	38693
#	50790
#	63009
#	76226
#	88562
#	100715
#	113522
#	125424
#	138063
#	151331
#	163780
#	176559
#	189274
#	202622
#	216622
#	233494
#	245929
#	284835
#	295756
#	345533
#
# Disc length: 4761 seconds
#
# Revision: 1
# Processed by: cddbd v1.5.2PL0 Copyright (c) Steve Scherf et al.
# Submitted via: CDex 1.70beta2
#
DISCID=35129717
DTITLE=Various Artist - Jazz Roads CD383 - Bebop - White Bebop Boys Vol. 7 (1951) Stan Getz - Kai Winding - Zoot Sims (1951)
DYEAR=1900
DGENRE=Jazz
TTITLE0=Stan Getz Quartet - Penny
TTITLE1=Stan Getz Quartet - Split Kick
TTITLE2=Stan Getz Quartet - It Might As Well Be Spring
TTITLE3=Stan Getz Quartet - The Best Thing For You
TTITLE4=Kai Winding's Band - Deep Purple
TTITLE5=Kai Winding's Band - I'm Shooting High
TTITLE6=Kai Winding's Band - You're Blas
TTITLE7=Kai Winding's Band - Moonshower
TTITLE8=Kai Winding's Band - Honey
TTITLE9=Kai Winding's Band - Someone To Watch Over Me
TTITLE10=Kai Winding's Band - Cheek To Cheek
TTITLE11=Kai Winding's Band - Harlem Buffet
TTITLE12=Flip Phillips Quintet - Broadway
TTITLE13=Flip Phillips Quintet - Wrap Your Troubles In Dreams
TTITLE14=Flip Phillips Quintet - Apple Honey
TTITLE15=Flip Phillips Quintet - Long Island Boogie
TTITLE16=Flip Phillips Quintet - Stardust
TTITLE17=Zoot Sims Quartet - Trotting
TTITLE18=Zoot Sims Quartet - It Had To Be You
TTITLE19=Zoot Sims Quartet - Zoot Swings The Blues
TTITLE20=Zoot Sims Quartet - Swingin'
TTITLE21=Zoot Sims Quartet - East Of The Sun
TTITLE22=Zoot Sims Quartet - I Wonder Who
EXTD=
EXTT0=
EXTT1=
EXTT2=
EXTT3=
EXTT4=
EXTT5=
EXTT6=
EXTT7=
EXTT8=
EXTT9=
EXTT10=
EXTT11=
EXTT12=
EXTT13=
EXTT14=
EXTT15=
EXTT16=
EXTT17=
EXTT18=
EXTT19=
EXTT20=
EXTT21=
EXTT22=
PLAYORDER=
